<?xml version="1.0" encoding="utf-8"?>
<!-- Generator: Adobe Illustrator 16.0.4, SVG Export Plug-In . SVG Version: 6.00 Build 0)  -->
<!DOCTYPE svg PUBLIC "-//W3C//DTD SVG 1.1//EN" "http://www.w3.org/Graphics/SVG/1.1/DTD/svg11.dtd">
<svg version="1.1" id="Layer_1" xmlns="http://www.w3.org/2000/svg" xmlns:xlink="http://www.w3.org/1999/xlink" x="0px" y="0px"
	 width="218px" height="234px" viewBox="0 0 218 234" enable-background="new 0 0 218 234" xml:space="preserve">
<g>
	<path d="M122.36,19.806c16.103,1.635,24.449,8.055,24.449,8.055c7.854,2.184,9.115,1.986,9.115,1.986
		c12.993-3.376,14.934-3.575,14.934-3.575l3.975-0.894c12.8-3.674,16.097-3.475,16.097-3.475
		c12.799,2.184,18.036,10.228,18.036,10.228c6.496,11.121,3.781,23.037,3.781,23.037c-4.848,16.881-7.854,20.853-7.854,20.853
		c-7.562,19.265-7.757,18.371-7.757,18.371c1.939,9.434,1.648,11.519,1.648,11.519c5.721,9.831,3.394,21.25,3.394,21.25
		c-1.164,8.441-1.938,12.811-1.938,12.811l-2.522,1.688c0,0,0.97-2.284,0,0c-0.969,2.284-3.199,3.078-3.199,3.078
		c-1.066,5.065-9.696,17.576-9.696,17.576c-3.977,17.577-6.304,20.754-6.304,20.754c-3.006,5.063-4.944,5.561-4.944,5.561
		c-3.879-1.092-5.915,0-5.915,0c-4.073,3.773-5.043,5.76-5.043,5.76c-16.388,22.144-19.199,23.732-19.199,23.732
		c-12.8,10.427-22.787,10.129-22.787,10.129c-19.297,1.688-27.539,0.001-27.539,0.001c-20.557-6.355-22.496-10.726-22.496-10.726
		c-6.206-6.355-9.503-10.725-9.503-10.725c-5.333-5.958-5.333-7.249-5.333-7.249c-2.715-3.674-2.715-4.171-2.715-4.171
		c-2.327-5.56-6.4-7.943-6.4-7.943c-12.605-10.923-18.521-21.25-18.521-21.25c-10.181-11.52-9.89-18.867-9.89-18.867
		c-2.521-5.562-5.527-8.043-5.527-8.043c-1.649-3.376-1.649-4.171-1.649-4.171c-2.812-10.228-2.618-12.015-2.618-12.015
		c1.455-12.909,1.939-14.101,1.939-14.101c2.328-19.959,7.854-30.187,7.854-30.187c3.2-10.625,1.843-12.711,1.843-12.711
		l-0.971-3.972c-1.841-7.05-3.103-8.738-3.103-8.738c-1.745-5.958-2.812-8.54-2.812-8.54c-3.296-13.902,0-19.165,0-19.165
		C20.171,10.285,29.577,8.001,29.577,8.001c7.951-2.88,20.363,0,20.363,0c14.933,5.958,26.181,12.81,26.181,12.81
		c3.297,0.595,6.206,0.496,6.206,0.496C107.643,17.85,119.667,19.357,122.36,19.806c0.401,0.067,0.596,0.111,0.596,0.111
		 M57.018,115.047c0,0-1.647,2.681,2.037,13.802c0,0,4.849,8.44,14.448,10.427c0,0,12.218,0.099,12.703-4.965
		c0,0-0.194,0.893,0-3.179c0,0-1.843-5.361-8.243-10.625c0,0-11.732-7.745-20.945-5.973V115.047z M146.713,118.82
		c-6.497,4.071-9.115,7.953-9.115,7.953c-3.006,4.359-3.49,6.445-3.49,6.445c-0.582,2.88,0.679,6.058,0.679,6.058
		c3.006,4.468,12.8,3.376,12.8,3.376c6.69-1.688,8.921-5.462,8.921-5.462c3.976-3.574,5.527-8.143,5.527-8.143l0.388-1.588
		c0,0-0.775,3.31,0,0c0.828-3.536,1.066-8.639,1.066-8.639l-0.194-1.49c0,0,0.194,1.391,0,0c-0.194-1.39-1.163-1.787-1.163-1.787
		C157.088,113.458,146.713,118.82,146.713,118.82 M82.909,196.274c0.097,2.284,1.163,3.575,1.163,3.575
		c0.388,1.39,0.679,1.985,0.679,1.985c4.46,4.271,8.921,5.264,8.921,5.264c2.909,0.197,5.333,3.077,5.333,3.077
		c1.649,2.186,2.133,3.277,2.133,3.277c0.971,1.391,0.873,0.895,0.873,0.895c1.843,2.184,4.073,2.979,4.073,2.979
		c4.848-0.298,5.721-2.383,5.721-2.383c2.133-2.086,2.909-3.377,2.909-3.377c4.363-1.391,7.854-1.489,7.854-1.489l0.873-0.497
		c2.715-0.396,5.042-2.78,5.042-2.78c0.582-1.191,1.454-1.887,1.454-1.887c3.007-6.156,1.939-6.851,1.939-6.851
		c-3.2,3.674-24.392,2.383-24.392,2.383C86.981,198.657,82.909,196.274,82.909,196.274 M186.89,101.475
		c0,0,0.518-5.825,8.274-12.975c0,0,4.654-9.533,10.343-26.207c0,0,1.035-7.687-5.171-15.366c0,0-5.948-5.561-15.515-3.973
		c0,0-9.567,2.384-19.652,13.241c0,0-3.362,6.355-6.982,6.09C158.187,62.285,166.462,68.111,186.89,101.475 M36.914,78.173
		c9.05-17.212,33.357-26.745,33.357-26.745c-5.689-0.529-6.466-8.759-6.466-8.759C50.877,25.213,41.051,24.154,41.051,24.154
		c-8.791-2.648-18.876,13.637-18.876,13.637c-3.103,10.195,1.811,17.08,1.811,17.08c4.653,7.149,4.653,9.268,4.653,9.268
		c3.104,4.236,4.913,6.62,4.913,6.62L36.914,78.173"/>
</g>
</svg>
